<?xml version="1.0" encoding="UTF-8"?>
<svg width="787px" height="143px" viewBox="0 0 787 143" version="1.1" xmlns="http://www.w3.org/2000/svg" xmlns:xlink="http://www.w3.org/1999/xlink">
    <title>Share your story</title>
    <g id="Share-your-story" stroke="none" stroke-width="1" fill="none" fill-rule="evenodd">
        <rect id="CTA1" fill="#3E75FF" x="42" y="18" width="745" height="76" rx="38"></rect>
        <text id="Share-your-story-wit" font-family="Merriweather-Black, Merriweather" font-size="32" font-weight="800" line-spacing="44" fill="#FFFFFF">
            <tspan x="184.008" y="66">Share your story with KootenayBiz</tspan>
        </text>
        <path d="M172.62932,13.9352291 L172.609819,12.9390509 C172.432805,10.2835637 171.507234,7.7230422 170.085124,5.59645972 C169.758099,5.03703549 169.315565,4.58368852 168.918034,4.08752544 C168.724519,3.83107329 168.480001,3.63699337 168.256483,3.41535708 L167.572431,2.7707451 L166.823873,2.21798773 C166.571854,2.03842677 166.331835,1.83530955 166.057314,1.70078699 C165.517273,1.4141117 164.998233,1.06654569 164.420688,0.877502967 L163.571623,0.545641133 C163.283601,0.450379008 162.986578,0.396895918 162.694055,0.32133809 C162.400032,0.258669538 162.10901,0.164444482 161.810487,0.129480467 L160.913418,0.0453297881 C160.314872,-0.0453396058 159.716326,0.0247365761 159.11628,0.0442927199 L158.666245,0.0659230001 L158.240212,0.114517054 L157.389647,0.213779299 L150.588123,1.0074328 C132.457727,3.16068275 114.306329,5.13496436 96.1804332,7.34184555 L41.8162469,14.0909374 C32.7540491,15.1986745 23.7026521,16.4104146 14.6466047,17.579635 L12.948774,17.8006787 L12.5243913,17.8557914 L12.039854,17.9455719 L11.0697293,18.134022 C9.79988147,18.4995145 8.53288391,18.9596765 7.40089674,19.7192549 L6.96811341,19.9841517 L6.55918192,20.2918647 L5.74911954,20.9191428 C5.25558154,21.4015277 4.72364058,21.8394668 4.2889071,22.3904463 C3.35238498,23.4190699 2.60727761,24.6413289 1.97572897,25.9167746 C1.35108087,27.2043689 0.932248621,28.6015961 0.641376222,30.0259353 C0.579871486,30.3844646 0.540118425,30.7481792 0.490764624,31.1093753 L0.422059334,31.6520582 C0.408258271,31.8339896 0.405708074,32.0169581 0.397757462,32.1994821 L0.362204724,33.2946262 L0.425959634,34.3871035 L0.462412441,34.9327495 C0.484164116,35.1130512 0.516566611,35.291427 0.543718702,35.4709879 L0.718782183,36.5449462 L1.11166244,38.4098911 L1.90042318,42.1169656 C3.99533449,52.004226 6.16180132,61.8731154 8.28896513,71.7520792 L13.5581209,95.8104325 C13.6964315,96.4328216 13.8129905,97.0190614 14.0075555,97.718638 C14.3713335,99.0623821 14.8917236,100.355754 15.5807266,101.529123 C16.9630831,103.866971 18.922834,105.767769 21.2025595,106.899655 C22.3405472,107.465598 23.5470901,107.850795 24.7755347,108.044875 C25.0839584,108.081913 25.3914821,108.130803 25.7002059,108.154507 L26.6286274,108.184138 L28.3257081,108.160434 L41.8492494,107.898203 L69.2713611,107.191516 L83.6019646,143 L97.0324988,108.674523 C105.803674,108.702672 114.57485,108.77823 123.347525,108.75897 C127.906376,108.741192 132.463727,108.763415 137.022578,108.705635 L137.876144,108.698228 L138.311177,108.69082 L138.791214,108.665634 C139.110739,108.6523 139.430264,108.63304 139.748288,108.578224 C140.064813,108.52637 140.384337,108.501185 140.696361,108.415256 C141.953458,108.148581 143.176052,107.683382 144.308639,107.022622 C146.581314,105.72036 148.483461,103.665484 149.740558,101.207632 L150.184592,100.269826 L150.561121,99.2964632 C150.780138,98.6371842 150.982653,97.94383 151.126664,97.3601087 L161.58847,57.1020089 C162.850067,52.2203806 164.167169,47.3571232 165.452768,42.4837915 L169.401072,27.8938711 L171.402226,20.6078742 C171.729251,19.3839855 172.10278,18.2174319 172.354799,16.8953181 L172.456807,16.4120443 C172.488309,16.2499653 172.49431,16.0829974 172.512311,15.9188443 L172.606818,14.9290367 C172.653322,14.5996935 172.635321,14.267239 172.62932,13.9352291" id="Fill-213" fill="#00113E"></path>
        <rect id="Rectangle" fill="#FFFFFF" x="23.9566929" y="34.4305512" width="122.834646" height="6.5511811" rx="3.27559055"></rect>
        <rect id="Rectangle" fill="#FFFFFF" x="71.2364433" y="21.8741207" width="75.5548953" height="6.5511811" rx="3.27559055"></rect>
        <rect id="Rectangle" fill="#FFFFFF" x="25.3472738" y="48.0788451" width="118.199376" height="6.5511811" rx="3.27559055"></rect>
        <rect id="Rectangle" fill="#FFFFFF" x="28.1284356" y="61.7271391" width="112.637052" height="6.5511811" rx="3.27559055"></rect>
        <rect id="Rectangle" fill="#FFFFFF" x="30.4460704" y="74.8295013" width="108.001783" height="6.5511811" rx="3.27559055"></rect>
        <rect id="Rectangle" fill="#FFFFFF" x="34.6178131" y="87.3859318" width="97.8041896" height="6.5511811" rx="3.27559055"></rect>
    </g>
</svg>