<svg id="Image" xmlns="http://www.w3.org/2000/svg" width="267" height="155" viewBox="0 0 267 155">
  <rect id="Rectangle_1604" data-name="Rectangle 1604" width="267" height="155" fill="#2bf4fd"/>
  <path id="Icon_awesome-image" data-name="Icon awesome-image" d="M56.315,51.106H5.826A5.826,5.826,0,0,1,0,45.28V10.326A5.826,5.826,0,0,1,5.826,4.5h50.49a5.826,5.826,0,0,1,5.826,5.826V45.28A5.826,5.826,0,0,1,56.315,51.106ZM13.593,11.3a6.8,6.8,0,1,0,6.8,6.8A6.8,6.8,0,0,0,13.593,11.3ZM7.768,43.338H54.373V29.745L43.752,19.123a1.457,1.457,0,0,0-2.06,0L25.245,35.571l-6.738-6.738a1.457,1.457,0,0,0-2.06,0l-8.68,8.68Z" transform="translate(102.182 49.697)" fill="#2bf4fd"/>
</svg>
