<svg id="Image" xmlns="http://www.w3.org/2000/svg" width="755" height="424.883" viewBox="0 0 755 424.883">
  <path id="Rectangle_1604" data-name="Rectangle 1604" d="M15,0H740a15,15,0,0,1,15,15V424.883a0,0,0,0,1,0,0H0a0,0,0,0,1,0,0V15A15,15,0,0,1,15,0Z" fill="#2bf4fd"/>
  <path id="Icon_awesome-image" data-name="Icon awesome-image" d="M56.315,51.106H5.826A5.826,5.826,0,0,1,0,45.28V10.326A5.826,5.826,0,0,1,5.826,4.5h50.49a5.826,5.826,0,0,1,5.826,5.826V45.28A5.826,5.826,0,0,1,56.315,51.106ZM13.593,11.3a6.8,6.8,0,1,0,6.8,6.8A6.8,6.8,0,0,0,13.593,11.3ZM7.768,43.338H54.373V29.745L43.752,19.123a1.457,1.457,0,0,0-2.06,0L25.245,35.571l-6.738-6.738a1.457,1.457,0,0,0-2.06,0l-8.68,8.68Z" transform="translate(346.429 184.639)" fill="#2bf4fd"/>
</svg>
