<svg xmlns="http://www.w3.org/2000/svg" width="149.3" height="83.3" viewBox="0 0 149.3 83.3">
  <g id="RVwest-logo" transform="translate(-44.8 32.3)">
    <g id="Group_6" data-name="Group 6">
      <path id="Path_27" data-name="Path 27" d="M142.3,33.1c0-2.4-.1-6.6,3.6-6.6s3.6,3.9,3.6,6.6Zm15.1,4.4c.3-9-.9-15.9-11.5-15.9-10.4,0-11.5,6.6-11.5,14.3,0,8.8,1.3,15,11.5,15,3.7,0,6.5-1,8.3-2.7a9.833,9.833,0,0,0,3-7.3h-8c0,2.3-.6,5-3.3,5-3.5,0-3.6-5-3.6-8.4Z" fill="#fff"/>
      <path id="Path_28" data-name="Path 28" d="M165.4,41.3a7.254,7.254,0,0,0,.4,3.4c.4.9,1.3,1.3,2.8,1.3a2.727,2.727,0,0,0,2.9-2.9c0-6-13.8-4.6-13.8-13.6,0-6.1,6-7.9,11.1-7.9,5.4,0,10.2,2.6,9.8,8.7h-7.7c0-2-.2-3.1-.8-3.6a2.671,2.671,0,0,0-2-.6c-1.7,0-2.7,1.1-2.7,3,0,4.5,13.8,4.2,13.8,13.3,0,4.9-4,8.6-10.6,8.6-6.9,0-11.4-1.7-11-9.6h7.8Z" fill="#fff"/>
      <path id="Path_29" data-name="Path 29" d="M178.9,22.2h3.2V17.7l7.9-3.5v8h4.1v4.9H190V42.2c0,2.1-.1,3.5,2.5,3.5a6.15,6.15,0,0,0,1.4-.1v4.9a34.919,34.919,0,0,1-4.1.3c-6.8,0-7.7-4.5-7.7-6.3V27.1h-3.2Z" fill="#fff"/>
      <path id="Path_30" data-name="Path 30" d="M94,22.2h7.8l3.9,21.2h.1l5.4-21.2h8.2l5,21.2h.1l4.2-21.2h7.5l-7.6,28.2h-8.3l-5.1-19.3h-.1l-5.7,19.3H101Z" fill="#fff"/>
    </g>
    <g id="Group_7" data-name="Group 7">
      <path id="Path_31" data-name="Path 31" d="M53.6,14.8h3.9c2.8,0,4.5,1.5,4.5,5.6,0,2.7-1,6.2-4.5,6.2H53.6Zm0,18.3h2.3c6.8,0,6.3,4.3,6.3,9.3,0,2.8-.2,5.6.9,8.2h8.7c-.8-1.8-1-9.7-1-12.4,0-7.6-5.7-8.1-7.7-8.3v-.1c5.7-.9,7.9-5,7.9-10.4,0-7.2-3.9-11.1-9.9-11.1H44.8V50.6h8.9V33.1Z" fill="#fff"/>
      <path id="Path_32" data-name="Path 32" d="M69.2,8.3h9.2L85,39.1h.1l17.6-71.4h8.7L90,50.6H79.7Z" fill="#fff"/>
    </g>
  </g>
</svg>
